<?xml version="1.0" encoding="UTF-8"?> <svg xmlns="http://www.w3.org/2000/svg" width="100" height="100" viewBox="0 0 100 100" fill="none"> <g clip-path="url(#clip0)"> <circle cx="1.5" cy="1.5" r="1.5" fill="#89D83A"></circle> <circle cx="14.5" cy="1.5" r="1.5" fill="#89D83A"></circle> <circle cx="27.5" cy="1.5" r="1.5" fill="#89D83A"></circle> <circle cx="40.5" cy="1.5" r="1.5" fill="#89D83A"></circle> <circle cx="53.5" cy="1.5" r="1.5" fill="#89D83A"></circle> <circle cx="66.5" cy="1.5" r="1.5" fill="#89D83A"></circle> <circle cx="79.5" cy="1.5" r="1.5" fill="#89D83A"></circle> <circle cx="92.5" cy="1.5" r="1.5" fill="#89D83A"></circle> <circle cx="1.5" cy="14.5" r="1.5" fill="#89D83A"></circle> <circle cx="14.5" cy="14.5" r="1.5" fill="#89D83A"></circle> <circle cx="27.5" cy="14.5" r="1.5" fill="#89D83A"></circle> <circle cx="40.5" cy="14.5" r="1.5" fill="#89D83A"></circle> <circle cx="53.5" cy="14.5" r="1.5" fill="#89D83A"></circle> <circle cx="66.5" cy="14.5" r="1.5" fill="#89D83A"></circle> <circle cx="79.5" cy="14.5" r="1.5" fill="#89D83A"></circle> <circle cx="92.5" cy="14.5" r="1.5" fill="#89D83A"></circle> <circle cx="1.5" cy="27.5" r="1.5" fill="#89D83A"></circle> <circle cx="14.5" cy="27.5" r="1.5" fill="#89D83A"></circle> <circle cx="27.5" cy="27.5" r="1.5" fill="#89D83A"></circle> <circle cx="40.5" cy="27.5" r="1.5" fill="#89D83A"></circle> <circle cx="53.5" cy="27.5" r="1.5" fill="#89D83A"></circle> <circle cx="66.5" cy="27.5" r="1.5" fill="#89D83A"></circle> <circle cx="79.5" cy="27.5" r="1.5" fill="#89D83A"></circle> <circle cx="92.5" cy="27.5" r="1.5" fill="#89D83A"></circle> <circle cx="1.5" cy="40.5" r="1.5" fill="#89D83A"></circle> <circle cx="14.5" cy="40.5" r="1.5" fill="#89D83A"></circle> <circle cx="27.5" cy="40.5" r="1.5" fill="#89D83A"></circle> <circle cx="40.5" cy="40.5" r="1.5" fill="#89D83A"></circle> <circle cx="53.5" cy="40.5" r="1.5" fill="#89D83A"></circle> <circle cx="66.5" cy="40.5" r="1.5" fill="#89D83A"></circle> <circle cx="79.5" cy="40.5" r="1.5" fill="#89D83A"></circle> <circle cx="92.5" cy="40.5" r="1.5" fill="#89D83A"></circle> <circle cx="1.5" cy="53.5" r="1.5" fill="#89D83A"></circle> <circle cx="14.5" cy="53.5" r="1.5" fill="#89D83A"></circle> <circle cx="27.5" cy="53.5" r="1.5" fill="#89D83A"></circle> <circle cx="40.5" cy="53.5" r="1.5" fill="#89D83A"></circle> <circle cx="53.5" cy="53.5" r="1.5" fill="#89D83A"></circle> <circle cx="66.5" cy="53.5" r="1.5" fill="#89D83A"></circle> <circle cx="79.5" cy="53.5" r="1.5" fill="#89D83A"></circle> <circle cx="92.5" cy="53.5" r="1.5" fill="#89D83A"></circle> <circle cx="1.5" cy="66.5" r="1.5" fill="#89D83A"></circle> <circle cx="14.5" cy="66.5" r="1.5" fill="#89D83A"></circle> <circle cx="27.5" cy="66.5" r="1.5" fill="#89D83A"></circle> <circle cx="40.5" cy="66.5" r="1.5" fill="#89D83A"></circle> <circle cx="53.5" cy="66.5" r="1.5" fill="#89D83A"></circle> <circle cx="66.5" cy="66.5" r="1.5" fill="#89D83A"></circle> <circle cx="79.5" cy="66.5" r="1.5" fill="#89D83A"></circle> <circle cx="92.5" cy="66.5" r="1.5" fill="#89D83A"></circle> <circle cx="1.5" cy="79.5" r="1.5" fill="#89D83A"></circle> <circle cx="14.5" cy="79.5" r="1.5" fill="#89D83A"></circle> <circle cx="27.5" cy="79.5" r="1.5" fill="#89D83A"></circle> <circle cx="40.5" cy="79.5" r="1.5" fill="#89D83A"></circle> <circle cx="53.5" cy="79.5" r="1.5" fill="#89D83A"></circle> <circle cx="66.5" cy="79.5" r="1.5" fill="#89D83A"></circle> <circle cx="79.5" cy="79.5" r="1.5" fill="#89D83A"></circle> <circle cx="92.5" cy="79.5" r="1.5" fill="#89D83A"></circle> <circle cx="1.5" cy="92.5" r="1.5" fill="#89D83A"></circle> <circle cx="14.5" cy="92.5" r="1.5" fill="#89D83A"></circle> <circle cx="27.5" cy="92.5" r="1.5" fill="#89D83A"></circle> <circle cx="40.5" cy="92.5" r="1.5" fill="#89D83A"></circle> <circle cx="53.5" cy="92.5" r="1.5" fill="#89D83A"></circle> <circle cx="66.5" cy="92.5" r="1.5" fill="#89D83A"></circle> <circle cx="79.5" cy="92.5" r="1.5" fill="#89D83A"></circle> <circle cx="92.5" cy="92.5" r="1.5" fill="#89D83A"></circle> </g> <defs> <clipPath id="clip0"> <rect width="100" height="100" fill="white"></rect> </clipPath> </defs> </svg> 